HIERARCHY
ROOT Hips
{
	OFFSET 0.000000 100.481300 0.000000
	CHANNELS 6 Xposition Yposition Zposition Xrotation Yrotation Zrotation 
	JOINT Spine
	{
		OFFSET -0.279200 12.230698 -2.892100
		CHANNELS 3 Xrotation Yrotation Zrotation
		JOINT Spine1
		{
			OFFSET -0.232667 10.192268 -1.242267
			CHANNELS 3 Xrotation Yrotation Zrotation
			JOINT Spine1_split
			{
				OFFSET -0.232667 10.192268 -1.242267
				CHANNELS 3 Xrotation Yrotation Zrotation
				JOINT Spine2
				{
					OFFSET -0.232667 10.192268 -1.242267
					CHANNELS 3 Xrotation Yrotation Zrotation
					JOINT Neck
					{
						OFFSET -0.418800 17.814194 8.416900
						CHANNELS 3 Xrotation Yrotation Zrotation
						JOINT Head
						{
							OFFSET 0.000000 7.031097 3.806800
							CHANNELS 3 Xrotation Yrotation Zrotation
							JOINT HeadTop_End
							{
								OFFSET 0.000000 24.646606 12.978600
								CHANNELS 3 Xrotation Yrotation Zrotation
								End Site
								{
									OFFSET 0.000000 0.000000 0.000000
								}
							}
						}
					}
					JOINT LeftShoulder
					{
						OFFSET 8.476499 7.247704 -3.868750
						CHANNELS 3 Xrotation Yrotation Zrotation
						JOINT LeftShoulder_split
						{
							OFFSET 8.476499 7.247704 -3.868750
							CHANNELS 3 Xrotation Yrotation Zrotation
							JOINT LeftArm
							{
								OFFSET 9.308998 -2.777710 0.208600
								CHANNELS 3 Xrotation Yrotation Zrotation
								JOINT LeftForeArm
								{
									OFFSET 29.972298 0.000000 0.000000
									CHANNELS 3 Xrotation Yrotation Zrotation
									JOINT LeftHand
									{
										OFFSET 26.026505 0.000000 0.000000
										CHANNELS 3 Xrotation Yrotation Zrotation
										JOINT LeftHandThumb1
										{
											OFFSET 12.240501 -7.147949 9.207150
											CHANNELS 3 Xrotation Yrotation Zrotation
											JOINT LeftHandThumb2
											{
												OFFSET 4.138618 -2.389435 2.389433
												CHANNELS 3 Xrotation Yrotation Zrotation
												JOINT LeftHandThumb3
												{
													OFFSET 2.726913 -1.574387 1.574386
													CHANNELS 3 Xrotation Yrotation Zrotation
													JOINT LeftHandThumb4
													{
														OFFSET 3.941010 -2.275345 2.275342
														CHANNELS 3 Xrotation Yrotation Zrotation
														End Site
														{
															OFFSET 0.000000 0.000000 0.000000
														}
													}
												}
											}
										}
										JOINT LeftHandIndex1
										{
											OFFSET 24.424698 -1.985611 5.953459
											CHANNELS 3 Xrotation Yrotation Zrotation
											JOINT LeftHandIndex2
											{
												OFFSET 6.426697 0.000000 0.000000
												CHANNELS 3 Xrotation Yrotation Zrotation
												JOINT LeftHandIndex3
												{
													OFFSET 5.337898 0.000000 0.000000
													CHANNELS 3 Xrotation Yrotation Zrotation
													JOINT LeftHandIndex4
													{
														OFFSET 4.409401 0.000000 0.000000
														CHANNELS 3 Xrotation Yrotation Zrotation
														End Site
														{
															OFFSET 0.000000 0.000000 0.000000
														}
													}
												}
											}
										}
										JOINT LeftHandMiddle1
										{
											OFFSET 23.810104 0.000000 0.000000
											CHANNELS 3 Xrotation Yrotation Zrotation
											JOINT LeftHandMiddle2
											{
												OFFSET 7.176498 0.000000 0.000000
												CHANNELS 3 Xrotation Yrotation Zrotation
												JOINT LeftHandMiddle3
												{
													OFFSET 6.774902 0.000000 0.000000
													CHANNELS 3 Xrotation Yrotation Zrotation
													JOINT LeftHandMiddle4
													{
														OFFSET 5.403328 0.000000 0.000000
														CHANNELS 3 Xrotation Yrotation Zrotation
														End Site
														{
															OFFSET 0.000000 0.000000 0.000000
														}
													}
												}
											}
										}
										JOINT LeftHandRing1
										{
											OFFSET 22.908401 -0.839279 -6.020567
											CHANNELS 3 Xrotation Yrotation Zrotation
											JOINT LeftHandRing2
											{
												OFFSET 6.337502 0.000000 0.000000
												CHANNELS 3 Xrotation Yrotation Zrotation
												JOINT LeftHandRing3
												{
													OFFSET 5.779297 0.000000 0.000000
													CHANNELS 3 Xrotation Yrotation Zrotation
													JOINT LeftHandRing4
													{
														OFFSET 4.965698 0.000000 0.000000
														CHANNELS 3 Xrotation Yrotation Zrotation
														End Site
														{
															OFFSET 0.000000 0.000000 0.000000
														}
													}
												}
											}
										}
										JOINT LeftHandPinky1
										{
											OFFSET 20.037003 -1.530319 -10.950146
											CHANNELS 3 Xrotation Yrotation Zrotation
											JOINT LeftHandPinky2
											{
												OFFSET 5.254700 0.000000 0.000000
												CHANNELS 3 Xrotation Yrotation Zrotation
												JOINT LeftHandPinky3
												{
													OFFSET 4.810204 0.000000 0.000000
													CHANNELS 3 Xrotation Yrotation Zrotation
													JOINT LeftHandPinky4
													{
														OFFSET 3.647202 0.000000 0.000000
														CHANNELS 3 Xrotation Yrotation Zrotation
														End Site
														{
															OFFSET 0.000000 0.000000 0.000000
														}
													}
												}
											}
										}
									}
								}
							}
						}
					}
					JOINT RightShoulder
					{
						OFFSET -7.570500 7.247704 -3.868750
						CHANNELS 3 Xrotation Yrotation Zrotation
						JOINT RightShoulder_split
						{
							OFFSET -7.570500 7.247704 -3.868750
							CHANNELS 3 Xrotation Yrotation Zrotation
							JOINT RightArm
							{
								OFFSET -9.308998 -2.777710 0.208500
								CHANNELS 3 Xrotation Yrotation Zrotation
								JOINT RightForeArm
								{
									OFFSET -29.972300 0.000000 0.000000
									CHANNELS 3 Xrotation Yrotation Zrotation
									JOINT RightHand
									{
										OFFSET -26.026505 0.000000 0.000000
										CHANNELS 3 Xrotation Yrotation Zrotation
										JOINT RightHandThumb1
										{
											OFFSET -12.240601 -7.148026 9.207092
											CHANNELS 3 Xrotation Yrotation Zrotation
											JOINT RightHandThumb2
											{
												OFFSET -4.138618 -2.389435 2.389433
												CHANNELS 3 Xrotation Yrotation Zrotation
												JOINT RightHandThumb3
												{
													OFFSET -2.726974 -1.574417 1.574421
													CHANNELS 3 Xrotation Yrotation Zrotation
													JOINT RightHandThumb4
													{
														OFFSET -3.941010 -2.275345 2.275343
														CHANNELS 3 Xrotation Yrotation Zrotation
														End Site
														{
															OFFSET 0.000000 0.000000 0.000000
														}
													}
												}
											}
										}
										JOINT RightHandIndex1
										{
											OFFSET -24.424698 -1.985657 5.953444
											CHANNELS 3 Xrotation Yrotation Zrotation
											JOINT RightHandIndex2
											{
												OFFSET -6.426697 0.000000 0.000000
												CHANNELS 3 Xrotation Yrotation Zrotation
												JOINT RightHandIndex3
												{
													OFFSET -5.337898 0.000000 0.000000
													CHANNELS 3 Xrotation Yrotation Zrotation
													JOINT RightHandIndex4
													{
														OFFSET -4.409401 0.000000 0.000000
														CHANNELS 3 Xrotation Yrotation Zrotation
														End Site
														{
															OFFSET 0.000000 0.000000 0.000000
														}
													}
												}
											}
										}
										JOINT RightHandMiddle1
										{
											OFFSET -23.810097 0.000000 0.000000
											CHANNELS 3 Xrotation Yrotation Zrotation
											JOINT RightHandMiddle2
											{
												OFFSET -7.176498 0.000000 0.000000
												CHANNELS 3 Xrotation Yrotation Zrotation
												JOINT RightHandMiddle3
												{
													OFFSET -6.774902 0.000000 0.000000
													CHANNELS 3 Xrotation Yrotation Zrotation
													JOINT RightHandMiddle4
													{
														OFFSET -5.403328 0.000000 0.000000
														CHANNELS 3 Xrotation Yrotation Zrotation
														End Site
														{
															OFFSET 0.000000 0.000000 0.000000
														}
													}
												}
											}
										}
										JOINT RightHandRing1
										{
											OFFSET -22.908302 -0.839325 -6.020576
											CHANNELS 3 Xrotation Yrotation Zrotation
											JOINT RightHandRing2
											{
												OFFSET -6.337502 0.000000 0.000000
												CHANNELS 3 Xrotation Yrotation Zrotation
												JOINT RightHandRing3
												{
													OFFSET -5.779297 0.000000 0.000000
													CHANNELS 3 Xrotation Yrotation Zrotation
													JOINT RightHandRing4
													{
														OFFSET -4.965698 0.000000 0.000000
														CHANNELS 3 Xrotation Yrotation Zrotation
														End Site
														{
															OFFSET 0.000000 0.000000 0.000000
														}
													}
												}
											}
										}
										JOINT RightHandPinky1
										{
											OFFSET -20.037003 -1.530334 -10.950259
											CHANNELS 3 Xrotation Yrotation Zrotation
											JOINT RightHandPinky2
											{
												OFFSET -5.254700 0.000000 0.000000
												CHANNELS 3 Xrotation Yrotation Zrotation
												JOINT RightHandPinky3
												{
													OFFSET -4.810204 0.000000 0.000000
													CHANNELS 3 Xrotation Yrotation Zrotation
													JOINT RightHandPinky4
													{
														OFFSET -3.647202 0.000000 0.000000
														CHANNELS 3 Xrotation Yrotation Zrotation
														End Site
														{
															OFFSET 0.000000 0.000000 0.000000
														}
													}
												}
											}
										}
									}
								}
							}
						}
					}
				}
			}
		}
	}
	JOINT LeftUpLeg
	{
		OFFSET 15.427100 -6.655098 0.678600
		CHANNELS 3 Xrotation Yrotation Zrotation
		JOINT LeftLeg
		{
			OFFSET 4.081073 -39.591068 13.024000
			CHANNELS 3 Xrotation Yrotation Zrotation
			JOINT LeftFoot
			{
				OFFSET -4.081074 -37.707932 -15.979700
				CHANNELS 3 Xrotation Yrotation Zrotation
				JOINT LeftToeBase
				{
					OFFSET 5.346399 -15.068900 20.645000
					CHANNELS 3 Xrotation Yrotation Zrotation
					JOINT LeftToe_End
					{
						OFFSET 2.754700 0.931300 11.300900
						CHANNELS 3 Xrotation Yrotation Zrotation
						End Site
						{
							OFFSET 0.000000 0.000000 0.000000
						}
					}
				}
			}
		}
	}
	JOINT RightUpLeg
	{
		OFFSET -15.569500 -6.655098 0.678600
		CHANNELS 3 Xrotation Yrotation Zrotation
		JOINT RightLeg
		{
			OFFSET -4.081825 -39.591045 13.023800
			CHANNELS 3 Xrotation Yrotation Zrotation
			JOINT RightFoot
			{
				OFFSET 4.081824 -37.707954 -15.979600
				CHANNELS 3 Xrotation Yrotation Zrotation
				JOINT RightToeBase
				{
					OFFSET -5.346400 -15.068900 20.645000
					CHANNELS 3 Xrotation Yrotation Zrotation
					JOINT RightToe_End
					{
						OFFSET -2.754700 0.931300 11.300900
						CHANNELS 3 Xrotation Yrotation Zrotation
						End Site
						{
							OFFSET 0.000000 0.000000 0.000000
						}
					}
				}
			}
		}
	}
}
MOTION
Frames: 5
Frame Time: 0.016667
2.180664 82.366051 -1.187855 9.582439 -61.717931 10.032909 15.067631 -0.186174 -4.164453 5.872813 0.571251 -2.801485 0.000000 0.000000 0.000000 5.868636 0.648867 -2.855438 -3.636315 1.441471 3.747633 -20.003647 54.833124 2.408455 0.000000 -0.000000 -0.000000 1.829296 -3.192735 -12.271672 0.000000 0.000000 0.000000 -39.386692 26.350107 -34.911996 0.430054 -46.810158 0.421465 -10.315194 -0.130083 0.363159 40.109903 -15.297194 -0.360475 5.639920 28.097783 11.338772 1.088567 40.896311 22.734011 -0.000001 -0.000004 0.000000 6.882262 2.840038 -61.140486 8.248001 7.640043 -89.897878 2.146151 8.173413 -41.827795 -0.000003 0.000001 0.000000 -2.345537 4.688884 -62.655224 8.754167 9.897083 -87.051232 1.995361 4.929288 -37.483378 -0.000001 0.000001 0.000000 -9.042495 10.045630 -60.766171 8.523967 9.508868 -66.892947 6.576518 9.896778 -70.385120 0.000004 -0.000001 -0.000000 -17.946867 14.755003 -51.485911 8.868394 8.667045 -84.812071 4.540476 8.852639 -59.152997 -0.000001 -0.000001 -0.000001 0.631510 7.257367 8.703781 0.000000 0.000000 0.000000 7.936908 -9.680984 53.430787 -22.866917 36.192155 17.964147 -27.375381 10.434880 -17.812426 -2.346137 -6.100519 10.731419 2.364057 -23.806264 -8.771115 -5.012480 13.984867 5.861540 0.000001 0.000001 -0.000007 -0.054777 0.532077 0.738713 0.019714 -0.087362 5.078570 -0.003994 -2.004306 -2.834000 0.000001 0.000002 -0.000002 0.348257 -5.918487 2.583778 1.432615 -4.204230 24.052084 0.133945 1.746513 -5.753021 -0.000001 0.000001 0.000002 1.205821 -11.756059 4.154746 1.794825 -3.771852 26.865432 1.319773 -3.995336 19.486905 0.000000 0.000000 0.000000 2.126196 -19.166856 11.319904 3.354804 -2.122208 18.828571 6.366998 -5.015691 28.949180 0.000000 -0.000000 0.000002 -36.772687 10.614519 26.396079 33.318096 -8.019713 0.411756 -2.592087 -1.482516 -18.489115 -1.836438 -0.000619 -0.000032 0.000000 -0.000003 -0.000000 -28.947264 -19.270650 -35.995032 32.932652 6.440024 -2.515200 -10.677426 -1.251444 25.194087 -0.001663 -0.000376 0.000007 0.000000 -0.000000 0.000000 
2.217622 82.347771 -1.195006 8.542292 -62.001903 8.848612 14.989033 -0.188127 -4.158234 5.836665 0.551939 -2.747396 0.000000 0.000000 0.000000 5.832886 0.628927 -2.797340 -3.515839 1.561335 3.707975 -19.681544 55.042217 2.670135 -0.000001 0.000000 -0.000001 1.808127 -3.150470 -12.416793 0.000000 0.000000 0.000000 -36.014706 24.816608 -34.515128 0.404968 -47.203308 0.405347 -13.147533 -0.038074 2.175005 40.109900 -15.297194 -0.360478 5.639921 28.097791 11.338770 1.088572 40.896307 22.734010 -0.000001 -0.000000 0.000000 6.882263 2.840038 -61.140493 8.248004 7.640043 -89.897878 2.146150 8.173413 -41.827798 -0.000003 0.000000 -0.000002 -2.345536 4.688886 -62.655224 8.754166 9.897083 -87.051232 1.995357 4.929292 -37.483381 -0.000001 -0.000002 -0.000001 -9.042493 10.045630 -60.766171 8.523963 9.508868 -66.892953 6.576518 9.896778 -70.385120 -0.000005 -0.000001 -0.000001 -17.946865 14.755003 -51.485911 8.868400 8.667046 -84.812078 4.540482 8.852630 -59.152997 -0.000001 -0.000000 -0.000000 0.099916 6.784907 8.707333 0.000000 0.000000 0.000000 8.453902 -9.716552 53.843816 -22.782601 36.391391 17.920989 -26.906736 10.541921 -17.555698 -2.229118 -5.644470 10.223974 2.393501 -23.029672 -8.550821 -4.980961 13.814112 5.791554 0.000000 0.000000 -0.000002 -0.031258 0.157251 3.080519 0.067416 -0.504269 7.959871 -0.014412 -2.507061 0.490508 -0.000001 -0.000000 -0.000002 0.376503 -6.306656 4.884741 1.639300 -4.634035 27.021842 0.095052 1.209304 -2.497222 0.000000 -0.000000 0.000001 1.537602 -11.799172 6.930012 2.077794 -4.286924 30.313326 1.560726 -4.613971 23.337237 -0.000000 -0.000000 -0.000001 2.277203 -19.700294 14.604150 3.606960 -2.772445 22.891456 6.733025 -5.643454 33.554448 -0.000000 -0.000001 -0.000001 -36.341080 10.583187 26.927386 33.503393 -7.534474 0.423816 -2.761172 -2.050000 -18.669692 -1.836438 -0.000616 -0.000032 -0.000000 -0.000002 0.000000 -28.690093 -19.707833 -35.570201 32.878864 7.967119 -2.457636 -10.519402 -2.253495 24.450189 -0.001663 -0.000376 0.000007 -0.000000 -0.000000 0.000000 
2.255795 82.333130 -1.165241 7.420415 -62.608335 7.541011 14.765633 -0.170874 -4.089625 5.731448 0.497492 -2.601728 0.000000 0.000000 0.000000 5.728702 0.572378 -2.640778 -3.172932 1.885424 3.613001 -19.015358 55.489977 2.614351 -0.000000 -0.000000 0.000001 1.753346 -3.032284 -12.822387 0.000000 0.000000 0.000000 -32.213832 23.425696 -33.713527 0.377266 -47.042873 0.374146 -16.387656 -0.524151 3.915354 40.109903 -15.297201 -0.360479 5.639925 28.097788 11.338773 1.088571 40.896311 22.734011 -0.000001 -0.000002 0.000000 6.882263 2.840036 -61.140493 8.247999 7.640043 -89.897878 2.146149 8.173415 -41.827798 0.000000 0.000000 -0.000001 -2.345533 4.688886 -62.655224 8.754167 9.897083 -87.051232 1.995354 4.929286 -37.483375 0.000001 0.000001 -0.000001 -9.042495 10.045632 -60.766178 8.523966 9.508870 -66.892947 6.576523 9.896778 -70.385120 0.000003 -0.000000 0.000002 -17.946868 14.755000 -51.485911 8.868399 8.667041 -84.812071 4.540484 8.852639 -59.152997 0.000001 0.000000 -0.000000 -1.447333 6.161774 8.633104 0.000000 0.000000 0.000000 9.394065 -10.760427 54.077094 -22.572447 37.039481 17.841270 -25.737445 10.731215 -17.031944 -2.096129 -5.152964 9.668795 2.419542 -22.184251 -8.315890 -4.947196 13.628551 5.715574 -0.000001 0.000000 -0.000002 0.010645 -0.298156 5.838091 0.148000 -0.978317 11.261729 0.010267 -3.084847 4.314846 0.000001 -0.000000 -0.000001 0.435406 -6.777999 7.554060 1.917829 -5.120872 30.524310 0.088412 0.602985 1.164891 -0.000001 -0.000001 0.000000 1.924884 -11.837263 10.016848 2.453714 -4.859691 34.305680 1.901174 -5.305984 27.788068 0.000001 0.000000 0.000001 2.496664 -20.238849 18.079690 3.985120 -3.472897 27.434964 7.307801 -6.310911 38.904006 0.000001 0.000001 0.000003 -35.865911 10.844039 27.557220 33.759593 -7.784530 0.402268 -3.007644 -1.852035 -18.632705 -1.836438 -0.000618 -0.000032 0.000000 0.000002 0.000000 -28.248452 -19.826434 -35.277934 32.739289 7.788645 -2.473348 -10.370345 -1.519748 24.453793 -0.001663 -0.000376 0.000007 -0.000000 -0.000000 0.000000 
2.289876 82.291962 -1.138034 6.195222 -63.430075 6.116603 14.415416 -0.141456 -3.986501 5.567094 0.412697 -2.385939 0.000000 0.000000 0.000000 5.566065 0.484794 -2.409084 -2.647249 2.365242 3.479150 -17.989695 56.103249 2.243570 0.000000 0.000000 0.000000 1.672539 -2.851052 -13.443090 0.000000 0.000000 0.000000 -28.045991 22.205748 -32.670478 0.347576 -46.527232 0.330388 -19.859482 -1.433918 5.545887 40.109903 -15.297197 -0.360476 5.639920 28.097788 11.338774 1.088571 40.896311 22.734010 0.000001 -0.000001 0.000000 6.882265 2.840039 -61.140493 8.247996 7.640041 -89.897878 2.146150 8.173414 -41.827798 -0.000001 0.000000 -0.000002 -2.345532 4.688883 -62.655231 8.754167 9.897081 -87.051232 1.995361 4.929288 -37.483381 -0.000002 -0.000002 -0.000002 -9.042492 10.045631 -60.766171 8.523966 9.508871 -66.892947 6.576522 9.896774 -70.385120 -0.000002 -0.000000 -0.000000 -17.946865 14.755000 -51.485911 8.868400 8.667041 -84.812071 4.540477 8.852639 -59.152997 -0.000000 0.000001 -0.000000 -3.766302 5.416466 8.450668 0.000000 0.000000 0.000000 10.628865 -12.718395 54.218206 -22.307128 38.229306 17.808335 -24.218159 10.776491 -16.612407 -1.948307 -4.635275 9.073843 2.440906 -21.283373 -8.070738 -4.911591 13.430839 5.634756 0.000000 0.000001 -0.000002 0.075710 -0.754055 8.595587 0.259683 -1.461747 14.669949 0.078329 -3.689426 8.341188 0.000000 0.000002 -0.000001 0.518905 -7.250101 10.225993 2.241028 -5.604549 34.164555 0.123178 -0.029583 4.989688 0.000001 0.000000 0.000002 2.292860 -11.852352 12.948996 2.872647 -5.404299 38.305128 2.315173 -5.990431 32.397363 0.000001 0.000000 -0.000001 2.696874 -20.720388 21.219516 4.399105 -4.103581 31.748171 7.984944 -6.909384 44.266668 -0.000001 -0.000000 0.000001 -35.356461 11.272222 28.364140 34.079195 -8.068708 0.373147 -3.334935 -1.624370 -18.610780 -1.836438 -0.000620 -0.000032 0.000000 -0.000000 -0.000000 -27.840449 -19.775404 -34.701544 32.686796 8.451256 -2.467230 -10.164226 -1.605005 24.070405 -0.001663 -0.000376 0.000007 -0.000000 -0.000000 -0.000000 
2.335139 82.232002 -1.084638 4.858714 -64.361282 4.562402 13.955924 -0.096260 -3.845280 5.353496 0.303638 -2.121743 0.000000 0.000000 0.000000 5.354802 0.371085 -2.125152 -1.988714 2.953753 3.321219 -16.574782 56.788296 1.558035 0.000000 0.000000 0.000000 1.574592 -2.619407 -14.233884 0.000000 0.000000 0.000000 -23.554765 21.210097 -31.551929 0.317796 -45.950781 0.284400 -23.389523 -2.570867 7.088104 40.109897 -15.297196 -0.360473 5.639925 28.097791 11.338777 1.088569 40.896314 22.734005 -0.000001 0.000003 -0.000002 6.882259 2.840040 -61.140493 8.248000 7.640041 -89.897878 2.146153 8.173415 -41.827798 -0.000003 -0.000001 -0.000005 -2.345537 4.688883 -62.655224 8.754167 9.897083 -87.051225 1.995361 4.929293 -37.483378 0.000003 -0.000003 -0.000004 -9.042495 10.045630 -60.766178 8.523967 9.508873 -66.892953 6.576520 9.896772 -70.385113 -0.000001 0.000000 -0.000000 -17.946867 14.755002 -51.485908 8.868397 8.667044 -84.812078 4.540475 8.852636 -59.152997 -0.000000 -0.000003 0.000001 -6.616058 4.584718 8.134602 0.000000 0.000000 0.000000 12.017083 -15.513287 54.328988 -22.066045 40.056577 17.908630 -22.695667 10.405531 -16.631297 -1.786895 -4.100056 8.447655 2.456128 -20.340857 -7.819885 -4.874772 13.224053 5.550354 0.000002 -0.000000 0.000003 0.145287 -1.131328 10.937376 0.390523 -1.908551 17.869655 0.185678 -4.273136 12.271394 0.000001 0.000001 -0.000000 0.605022 -7.641070 12.533092 2.567847 -6.034038 37.545342 0.198164 -0.645120 8.733526 0.000000 0.000001 -0.000001 2.561679 -11.840270 15.259838 3.262206 -5.851401 41.770524 2.753274 -6.598374 36.718793 -0.000000 0.000001 0.000004 2.772785 -21.103266 23.487392 4.717479 -4.577189 35.113798 8.607365 -7.381072 48.902443 0.000001 0.000000 -0.000000 -34.843093 11.786996 29.278282 34.465882 -8.286689 0.342615 -3.733261 -1.466787 -18.600951 -1.836438 -0.000618 -0.000032 0.000000 0.000001 0.000000 -27.375651 -19.570625 -34.193686 32.623675 8.440512 -2.489698 -9.963588 -1.020721 23.994412 -0.001663 -0.000376 0.000007 -0.000000 -0.000000 -0.000000 
